<mxfile host="app.diagrams.net" agent="Mozilla/5.0 (Windows NT 10.0; Win64; x64) AppleWebKit/537.36 (KHTML, like Gecko) Chrome/133.0.0.0 Safari/537.36" version="26.1.0">
  <diagram name="Page-1" id="bMOO_KiF2TluG0jOJ94m">
    <mxGraphModel dx="2062" dy="655" grid="1" gridSize="10" guides="1" tooltips="1" connect="1" arrows="1" fold="1" page="1" pageScale="1" pageWidth="827" pageHeight="1169" math="0" shadow="0">
      <root>
        <mxCell id="0" />
        <mxCell id="1" parent="0" />
        <mxCell id="2Xab4bHun3AZz7Cy-8kC-1" value="GestorGastos" style="swimlane;fontStyle=1;align=center;verticalAlign=top;childLayout=stackLayout;horizontal=1;startSize=26;horizontalStack=0;resizeParent=1;resizeParentMax=0;resizeLast=0;collapsible=1;marginBottom=0;whiteSpace=wrap;html=1;" parent="1" vertex="1">
          <mxGeometry x="-530" y="120" width="260" height="300" as="geometry">
            <mxRectangle x="80" y="60" width="110" height="30" as="alternateBounds" />
          </mxGeometry>
        </mxCell>
        <mxCell id="2Xab4bHun3AZz7Cy-8kC-2" value="- __usuarios: dict" style="text;strokeColor=none;fillColor=none;align=left;verticalAlign=top;spacingLeft=4;spacingRight=4;overflow=hidden;rotatable=0;points=[[0,0.5],[1,0.5]];portConstraint=eastwest;whiteSpace=wrap;html=1;" parent="2Xab4bHun3AZz7Cy-8kC-1" vertex="1">
          <mxGeometry y="26" width="260" height="26" as="geometry" />
        </mxCell>
        <mxCell id="2Xab4bHun3AZz7Cy-8kC-3" value="-__categorias:list" style="text;strokeColor=none;fillColor=none;align=left;verticalAlign=top;spacingLeft=4;spacingRight=4;overflow=hidden;rotatable=0;points=[[0,0.5],[1,0.5]];portConstraint=eastwest;whiteSpace=wrap;html=1;" parent="2Xab4bHun3AZz7Cy-8kC-1" vertex="1">
          <mxGeometry y="52" width="260" height="26" as="geometry" />
        </mxCell>
        <mxCell id="2Xab4bHun3AZz7Cy-8kC-4" value="" style="line;strokeWidth=1;fillColor=none;align=left;verticalAlign=middle;spacingTop=-1;spacingLeft=3;spacingRight=3;rotatable=0;labelPosition=right;points=[];portConstraint=eastwest;strokeColor=inherit;" parent="2Xab4bHun3AZz7Cy-8kC-1" vertex="1">
          <mxGeometry y="78" width="260" height="8" as="geometry" />
        </mxCell>
        <mxCell id="2Xab4bHun3AZz7Cy-8kC-5" value="&lt;font&gt;&lt;span style=&quot;color: rgba(0, 0, 0, 0); font-family: monospace; text-wrap-mode: nowrap;&quot;&gt;- %3CmxGraphModel%3E%3Croot%3E%3CmxCell%20id%3D%220%22%2F%3E%3CmxCell%20id%3D%221%22%20parent%3D%220%22%2F%3E%3CmxCell%20id%3D%222%22%20value%3D%22-%20tasa%3A%20float%22%20style%3D%22text%3BstrokeColor%3Dnone%3BfillColor%3Dnone%3Balign%3Dleft%3BverticalAlign%3Dtop%3BspacingLeft%3D4%3BspacingRight%3D4%3Boverflow%3Dhidden%3Brotatable%3D0%3Bpoints%3D%5B%5B0%2C0.5%5D%2C%5B1%2C0.5%5D%5D%3BportConstraint%3Deastwest%3BwhiteSpace%3Dwrap%3Bhtml%3D1%3B%22%20vertex%3D%221%22%20parent%3D%221%22%3E%3CmxGeometry%20x%3D%2250%22%20y%3D%22500%22%20width%3D%22250%22%20height%3D%2226%22%20as%3D%22geometry%22%2F%3E%3C%2FmxCell%3E%3C%2Froot%3E%3C%2FmxGraphModel%3E ---wewewevvvvvvvvv&lt;/span&gt;+ + registrar_usuario(nombre)&lt;/font&gt;&lt;div&gt;&lt;font&gt;&lt;br&gt;+ agregar_categoria(nombre)&amp;nbsp;&lt;/font&gt;&lt;/div&gt;&lt;div&gt;&lt;font&gt;&lt;br&gt;+ agregar_transaccion(usuario,&amp;nbsp;&lt;/font&gt;&lt;/div&gt;&lt;div&gt;&lt;font&gt;&lt;br&gt;-&amp;nbsp; monto, categoria, tipo)&amp;nbsp;&lt;/font&gt;&lt;/div&gt;&lt;div&gt;&lt;font&gt;&lt;br&gt;+ obtener_balance_usuario()&amp;nbsp;&lt;/font&gt;&lt;/div&gt;&lt;div&gt;&lt;font&gt;&lt;br&gt;+ obtener_transacciones_usuario()&amp;nbsp;&lt;/font&gt;&lt;/div&gt;&lt;div&gt;&lt;font&gt;&lt;br&gt;+ obtener_categorias()&amp;nbsp;&amp;nbsp;&lt;/font&gt;&lt;/div&gt;&lt;div&gt;&lt;font&gt;&lt;br&gt;&lt;/font&gt;&lt;/div&gt;" style="text;strokeColor=none;fillColor=none;align=left;verticalAlign=top;spacingLeft=4;spacingRight=4;overflow=hidden;rotatable=0;points=[[0,0.5],[1,0.5]];portConstraint=eastwest;whiteSpace=wrap;html=1;" parent="2Xab4bHun3AZz7Cy-8kC-1" vertex="1">
          <mxGeometry y="86" width="260" height="214" as="geometry" />
        </mxCell>
        <mxCell id="2Xab4bHun3AZz7Cy-8kC-6" value="cuota" style="swimlane;fontStyle=1;align=center;verticalAlign=top;childLayout=stackLayout;horizontal=1;startSize=26;horizontalStack=0;resizeParent=1;resizeParentMax=0;resizeLast=0;collapsible=1;marginBottom=0;whiteSpace=wrap;html=1;" parent="1" vertex="1">
          <mxGeometry x="-170" y="120" width="246" height="260" as="geometry" />
        </mxCell>
        <mxCell id="2Xab4bHun3AZz7Cy-8kC-7" value="- __nombre: str" style="text;strokeColor=none;fillColor=none;align=left;verticalAlign=top;spacingLeft=4;spacingRight=4;overflow=hidden;rotatable=0;points=[[0,0.5],[1,0.5]];portConstraint=eastwest;whiteSpace=wrap;html=1;" parent="2Xab4bHun3AZz7Cy-8kC-6" vertex="1">
          <mxGeometry y="26" width="246" height="26" as="geometry" />
        </mxCell>
        <mxCell id="2Xab4bHun3AZz7Cy-8kC-8" value="+ agregar_transaccion(monto, categoria, tipo)" style="text;strokeColor=none;fillColor=none;align=left;verticalAlign=top;spacingLeft=4;spacingRight=4;overflow=hidden;rotatable=0;points=[[0,0.5],[1,0.5]];portConstraint=eastwest;whiteSpace=wrap;html=1;" parent="2Xab4bHun3AZz7Cy-8kC-6" vertex="1">
          <mxGeometry y="52" width="246" height="48" as="geometry" />
        </mxCell>
        <mxCell id="2Xab4bHun3AZz7Cy-8kC-12" value="" style="line;strokeWidth=1;fillColor=none;align=left;verticalAlign=middle;spacingTop=-1;spacingLeft=3;spacingRight=3;rotatable=0;labelPosition=right;points=[];portConstraint=eastwest;strokeColor=inherit;" parent="2Xab4bHun3AZz7Cy-8kC-6" vertex="1">
          <mxGeometry y="100" width="246" height="8" as="geometry" />
        </mxCell>
        <mxCell id="2Xab4bHun3AZz7Cy-8kC-13" value="&lt;div&gt;&lt;div&gt;+ agregar_transaccion(monto, categoria, tipo)&lt;/div&gt;&lt;/div&gt;&lt;div&gt;&lt;br&gt;&lt;/div&gt;&lt;div&gt;+ obtener_balance()&lt;/div&gt;&lt;div&gt;&lt;br&gt;&lt;/div&gt;&lt;div&gt;+ obtener_transacciones()&lt;/div&gt;" style="text;strokeColor=none;fillColor=none;align=left;verticalAlign=top;spacingLeft=4;spacingRight=4;overflow=hidden;rotatable=0;points=[[0,0.5],[1,0.5]];portConstraint=eastwest;whiteSpace=wrap;html=1;" parent="2Xab4bHun3AZz7Cy-8kC-6" vertex="1">
          <mxGeometry y="108" width="246" height="152" as="geometry" />
        </mxCell>
        <mxCell id="2Xab4bHun3AZz7Cy-8kC-31" style="edgeStyle=orthogonalEdgeStyle;rounded=0;orthogonalLoop=1;jettySize=auto;html=1;" parent="1" source="2Xab4bHun3AZz7Cy-8kC-14" target="2Xab4bHun3AZz7Cy-8kC-38" edge="1">
          <mxGeometry relative="1" as="geometry">
            <mxPoint x="240" y="620" as="targetPoint" />
          </mxGeometry>
        </mxCell>
        <mxCell id="2Xab4bHun3AZz7Cy-8kC-14" value="&amp;nbsp;Transaccion&amp;nbsp;" style="swimlane;fontStyle=1;align=center;verticalAlign=top;childLayout=stackLayout;horizontal=1;startSize=26;horizontalStack=0;resizeParent=1;resizeParentMax=0;resizeLast=0;collapsible=1;marginBottom=0;whiteSpace=wrap;html=1;" parent="1" vertex="1">
          <mxGeometry x="220" y="129" width="250" height="242" as="geometry" />
        </mxCell>
        <mxCell id="2Xab4bHun3AZz7Cy-8kC-15" value="- __monto: float" style="text;strokeColor=none;fillColor=none;align=left;verticalAlign=top;spacingLeft=4;spacingRight=4;overflow=hidden;rotatable=0;points=[[0,0.5],[1,0.5]];portConstraint=eastwest;whiteSpace=wrap;html=1;" parent="2Xab4bHun3AZz7Cy-8kC-14" vertex="1">
          <mxGeometry y="26" width="250" height="26" as="geometry" />
        </mxCell>
        <mxCell id="2Xab4bHun3AZz7Cy-8kC-16" value="- __categoria: str" style="text;strokeColor=none;fillColor=none;align=left;verticalAlign=top;spacingLeft=4;spacingRight=4;overflow=hidden;rotatable=0;points=[[0,0.5],[1,0.5]];portConstraint=eastwest;whiteSpace=wrap;html=1;" parent="2Xab4bHun3AZz7Cy-8kC-14" vertex="1">
          <mxGeometry y="52" width="250" height="26" as="geometry" />
        </mxCell>
        <mxCell id="2Xab4bHun3AZz7Cy-8kC-17" value="- __tipo: str " style="text;strokeColor=none;fillColor=none;align=left;verticalAlign=top;spacingLeft=4;spacingRight=4;overflow=hidden;rotatable=0;points=[[0,0.5],[1,0.5]];portConstraint=eastwest;whiteSpace=wrap;html=1;" parent="2Xab4bHun3AZz7Cy-8kC-14" vertex="1">
          <mxGeometry y="78" width="250" height="26" as="geometry" />
        </mxCell>
        <mxCell id="2Xab4bHun3AZz7Cy-8kC-18" value="- __fecha: str" style="text;strokeColor=none;fillColor=none;align=left;verticalAlign=top;spacingLeft=4;spacingRight=4;overflow=hidden;rotatable=0;points=[[0,0.5],[1,0.5]];portConstraint=eastwest;whiteSpace=wrap;html=1;" parent="2Xab4bHun3AZz7Cy-8kC-14" vertex="1">
          <mxGeometry y="104" width="250" height="26" as="geometry" />
        </mxCell>
        <mxCell id="2Xab4bHun3AZz7Cy-8kC-19" value="" style="line;strokeWidth=1;fillColor=none;align=left;verticalAlign=middle;spacingTop=-1;spacingLeft=3;spacingRight=3;rotatable=0;labelPosition=right;points=[];portConstraint=eastwest;strokeColor=inherit;" parent="2Xab4bHun3AZz7Cy-8kC-14" vertex="1">
          <mxGeometry y="130" width="250" height="8" as="geometry" />
        </mxCell>
        <mxCell id="2Xab4bHun3AZz7Cy-8kC-20" value="+ get_monto()" style="text;strokeColor=none;fillColor=none;align=left;verticalAlign=top;spacingLeft=4;spacingRight=4;overflow=hidden;rotatable=0;points=[[0,0.5],[1,0.5]];portConstraint=eastwest;whiteSpace=wrap;html=1;" parent="2Xab4bHun3AZz7Cy-8kC-14" vertex="1">
          <mxGeometry y="138" width="250" height="26" as="geometry" />
        </mxCell>
        <mxCell id="2Xab4bHun3AZz7Cy-8kC-21" value="+ get_categoria()" style="text;strokeColor=none;fillColor=none;align=left;verticalAlign=top;spacingLeft=4;spacingRight=4;overflow=hidden;rotatable=0;points=[[0,0.5],[1,0.5]];portConstraint=eastwest;whiteSpace=wrap;html=1;" parent="2Xab4bHun3AZz7Cy-8kC-14" vertex="1">
          <mxGeometry y="164" width="250" height="26" as="geometry" />
        </mxCell>
        <mxCell id="2Xab4bHun3AZz7Cy-8kC-22" value="+ get_tipo()" style="text;strokeColor=none;fillColor=none;align=left;verticalAlign=top;spacingLeft=4;spacingRight=4;overflow=hidden;rotatable=0;points=[[0,0.5],[1,0.5]];portConstraint=eastwest;whiteSpace=wrap;html=1;" parent="2Xab4bHun3AZz7Cy-8kC-14" vertex="1">
          <mxGeometry y="190" width="250" height="26" as="geometry" />
        </mxCell>
        <mxCell id="2Xab4bHun3AZz7Cy-8kC-23" value="+ get_fecha()" style="text;strokeColor=none;fillColor=none;align=left;verticalAlign=top;spacingLeft=4;spacingRight=4;overflow=hidden;rotatable=0;points=[[0,0.5],[1,0.5]];portConstraint=eastwest;whiteSpace=wrap;html=1;" parent="2Xab4bHun3AZz7Cy-8kC-14" vertex="1">
          <mxGeometry y="216" width="250" height="26" as="geometry" />
        </mxCell>
        <mxCell id="2Xab4bHun3AZz7Cy-8kC-25" style="edgeStyle=orthogonalEdgeStyle;rounded=0;orthogonalLoop=1;jettySize=auto;html=1;entryX=0;entryY=0.29;entryDx=0;entryDy=0;entryPerimeter=0;" parent="1" source="2Xab4bHun3AZz7Cy-8kC-3" target="2Xab4bHun3AZz7Cy-8kC-8" edge="1">
          <mxGeometry relative="1" as="geometry" />
        </mxCell>
        <mxCell id="2Xab4bHun3AZz7Cy-8kC-26" style="edgeStyle=orthogonalEdgeStyle;rounded=0;orthogonalLoop=1;jettySize=auto;html=1;exitX=1;exitY=0.5;exitDx=0;exitDy=0;entryX=0;entryY=0.5;entryDx=0;entryDy=0;" parent="1" source="2Xab4bHun3AZz7Cy-8kC-8" target="2Xab4bHun3AZz7Cy-8kC-16" edge="1">
          <mxGeometry relative="1" as="geometry" />
        </mxCell>
        <mxCell id="2Xab4bHun3AZz7Cy-8kC-38" value="Categoria&amp;nbsp; &amp;nbsp; &amp;nbsp;" style="swimlane;fontStyle=0;childLayout=stackLayout;horizontal=1;startSize=30;horizontalStack=0;resizeParent=1;resizeParentMax=0;resizeLast=0;collapsible=1;marginBottom=0;whiteSpace=wrap;html=1;" parent="1" vertex="1">
          <mxGeometry x="220" y="430" width="260" height="90" as="geometry" />
        </mxCell>
        <mxCell id="2Xab4bHun3AZz7Cy-8kC-39" value="- __nombre: str" style="text;strokeColor=none;fillColor=none;align=left;verticalAlign=middle;spacingLeft=4;spacingRight=4;overflow=hidden;points=[[0,0.5],[1,0.5]];portConstraint=eastwest;rotatable=0;whiteSpace=wrap;html=1;" parent="2Xab4bHun3AZz7Cy-8kC-38" vertex="1">
          <mxGeometry y="30" width="260" height="30" as="geometry" />
        </mxCell>
        <mxCell id="2Xab4bHun3AZz7Cy-8kC-40" value=" + get_nombre()" style="text;strokeColor=none;fillColor=none;align=left;verticalAlign=middle;spacingLeft=4;spacingRight=4;overflow=hidden;points=[[0,0.5],[1,0.5]];portConstraint=eastwest;rotatable=0;whiteSpace=wrap;html=1;" parent="2Xab4bHun3AZz7Cy-8kC-38" vertex="1">
          <mxGeometry y="60" width="260" height="30" as="geometry" />
        </mxCell>
      </root>
    </mxGraphModel>
  </diagram>
</mxfile>
